<svg xmlns="http://www.w3.org/2000/svg" viewBox="0 0 120 120" width="120" height="120">
  <defs>
    <linearGradient id="akior-grad" x1="0%" y1="0%" x2="100%" y2="100%">
      <stop offset="0%" stop-color="#00D4FF"/>
      <stop offset="100%" stop-color="#0090B0"/>
    </linearGradient>
  </defs>
  <!-- Outer hexagonal frame -->
  <polygon points="60,6 108,30 108,90 60,114 12,90 12,30"
           fill="none" stroke="#00D4FF" stroke-width="2" opacity="0.3"/>
  <!-- Inner geometric 'A' -->
  <path d="M60 20 L92 96 L80 96 L72 76 L48 76 L40 96 L28 96 Z M60 40 L50 72 L70 72 Z"
        fill="url(#akior-grad)" fill-rule="evenodd"/>
  <!-- Accent crossbar glow -->
  <line x1="46" y1="76" x2="74" y2="76" stroke="#00D4FF" stroke-width="1.5" opacity="0.6"/>
  <!-- Corner accent dots -->
  <circle cx="60" cy="6" r="2.5" fill="#00D4FF" opacity="0.7"/>
  <circle cx="108" cy="30" r="2" fill="#00D4FF" opacity="0.4"/>
  <circle cx="108" cy="90" r="2" fill="#00D4FF" opacity="0.4"/>
  <circle cx="60" cy="114" r="2.5" fill="#00D4FF" opacity="0.7"/>
  <circle cx="12" cy="90" r="2" fill="#00D4FF" opacity="0.4"/>
  <circle cx="12" cy="30" r="2" fill="#00D4FF" opacity="0.4"/>
</svg>
