<svg xmlns="http://www.w3.org/2000/svg" width="1536" height="1024" viewBox="0 0 1536 1024">
<defs>
  <filter id="glow" x="-50%" y="-50%" width="200%" height="200%">
    <feGaussianBlur stdDeviation="4" result="b"/>
    <feMerge><feMergeNode in="b"/><feMergeNode in="SourceGraphic"/></feMerge>
  </filter>
  <filter id="softGlow" x="-50%" y="-50%" width="200%" height="200%">
    <feGaussianBlur stdDeviation="10" result="b"/>
    <feMerge><feMergeNode in="b"/><feMergeNode in="SourceGraphic"/></feMerge>
  </filter>
  <radialGradient id="orbGrad" cx="50%" cy="50%" r="50%">
    <stop offset="0%" stop-color="#ffffff" stop-opacity="1"/>
    <stop offset="28%" stop-color="#9ffbff" stop-opacity="0.95"/>
    <stop offset="58%" stop-color="#44e9ff" stop-opacity="0.65"/>
    <stop offset="100%" stop-color="#00d4ff" stop-opacity="0"/>
  </radialGradient>
</defs>

<line x1="0" y1="481" x2="1536" y2="481" stroke="#6cf7ff" stroke-opacity="0.34" stroke-width="2" filter="url(#glow)"/>
<polyline points="0,479.67 8,482.68 16,493.00 24,480.02 32,481.23 40,483.57 48,471.58 56,481.36 64,485.04 72,490.30 80,467.81 88,474.46 96,467.03 104,491.84 112,487.96 120,464.07 128,499.32 136,499.16 144,487.19 152,485.78 160,466.41 168,459.73 176,482.28 184,460.52 192,466.16 200,468.27 208,457.13 216,479.11 224,477.80 232,499.99 240,482.09 248,489.24 256,480.99 264,491.10 272,478.27 280,466.41 288,514.66 296,515.46 304,505.31 312,496.26 320,467.07 328,460.06 336,464.23 344,445.93 352,503.30 360,472.44 368,511.54 376,470.75 384,523.43 392,513.97 400,432.41 408,452.07 416,522.87 424,477.86 432,532.38 440,469.77 448,433.18 456,495.83 464,513.63 472,453.42 480,430.44 488,460.05 496,540.34 504,514.71 512,430.04 520,446.45 528,425.52 536,418.53 544,524.02 552,433.37 560,489.94 568,472.92 576,432.51 584,518.06 592,420.88 600,504.86 608,416.12 616,467.34 624,430.60 632,439.85 640,566.72 648,537.23 656,444.05 664,554.89 672,424.49 680,459.99 688,552.65 696,510.17 704,397.42 712,585.04 720,419.01 728,427.88 736,541.90 744,442.18 752,434.03 760,381.05 768,383.45 776,500.38 784,421.73 792,503.99 800,452.35 808,470.72 816,580.26 824,477.54 832,496.59 840,556.37 848,416.87 856,412.26 864,560.79 872,542.01 880,433.75 888,423.51 896,524.58 904,559.73 912,427.74 920,558.58 928,545.65 936,498.19 944,468.20 952,417.68 960,408.68 968,552.14 976,441.56 984,511.23 992,445.80 1000,526.95 1008,494.42 1016,452.86 1024,437.70 1032,509.78 1040,425.86 1048,447.01 1056,488.27 1064,523.21 1072,494.39 1080,455.82 1088,527.74 1096,448.60 1104,429.29 1112,456.88 1120,475.46 1128,437.20 1136,449.51 1144,468.54 1152,487.69 1160,447.71 1168,468.85 1176,514.59 1184,521.24 1192,493.81 1200,496.20 1208,487.54 1216,453.88 1224,446.87 1232,446.55 1240,509.52 1248,494.59 1256,511.44 1264,450.38 1272,489.47 1280,479.93 1288,494.54 1296,470.66 1304,508.69 1312,458.13 1320,483.41 1328,493.04 1336,500.74 1344,492.36 1352,490.47 1360,494.24 1368,499.20 1376,474.69 1384,488.66 1392,497.11 1400,495.50 1408,477.85 1416,491.73 1424,494.07 1432,483.55 1440,485.26 1448,477.08 1456,483.69 1464,484.46 1472,467.96 1480,485.24 1488,495.74 1496,492.16 1504,487.61 1512,477.81 1520,487.65 1528,483.27 1536,479.33" fill="none" stroke="#79fbff" stroke-width="3" stroke-linecap="round" stroke-linejoin="round" filter="url(#glow)"/>
<line x1="0" y1="525" x2="1536" y2="525" stroke="#6cf7ff" stroke-opacity="0.15" stroke-width="1"/>
</svg>