<svg xmlns="http://www.w3.org/2000/svg" width="1536" height="1024" viewBox="0 0 1536 1024">
<defs>
  <filter id="glow" x="-50%" y="-50%" width="200%" height="200%">
    <feGaussianBlur stdDeviation="4" result="b"/>
    <feMerge><feMergeNode in="b"/><feMergeNode in="SourceGraphic"/></feMerge>
  </filter>
  <filter id="softGlow" x="-50%" y="-50%" width="200%" height="200%">
    <feGaussianBlur stdDeviation="10" result="b"/>
    <feMerge><feMergeNode in="b"/><feMergeNode in="SourceGraphic"/></feMerge>
  </filter>
  <radialGradient id="orbGrad" cx="50%" cy="50%" r="50%">
    <stop offset="0%" stop-color="#ffffff" stop-opacity="1"/>
    <stop offset="28%" stop-color="#9ffbff" stop-opacity="0.95"/>
    <stop offset="58%" stop-color="#44e9ff" stop-opacity="0.65"/>
    <stop offset="100%" stop-color="#00d4ff" stop-opacity="0"/>
  </radialGradient>
</defs>

<circle cx="703" cy="184" r="2.5" fill="#78f7ff" fill-opacity="0.25575230772076046" filter="url(#glow)"/>
<circle cx="188" cy="870" r="3" fill="#78f7ff" fill-opacity="0.10541511132371428" filter="url(#glow)"/>
<circle cx="1233" cy="89" r="3" fill="#78f7ff" fill-opacity="0.13796850882562867" filter="url(#glow)"/>
<circle cx="216" cy="474" r="2.5" fill="#78f7ff" fill-opacity="0.09886096436514712" filter="url(#glow)"/>
<circle cx="225" cy="594" r="2.5" fill="#78f7ff" fill-opacity="0.09595983664132707" filter="url(#glow)"/>
<circle cx="1198" cy="156" r="1.5" fill="#78f7ff" fill-opacity="0.250268997247569" filter="url(#glow)"/>
<circle cx="1233" cy="93" r="3" fill="#78f7ff" fill-opacity="0.2380961841129044" filter="url(#glow)"/>
<circle cx="141" cy="256" r="1" fill="#78f7ff" fill-opacity="0.230299522443015" filter="url(#glow)"/>
<circle cx="312" cy="326" r="2.5" fill="#78f7ff" fill-opacity="0.11894887250650812" filter="url(#glow)"/>
<circle cx="281" cy="614" r="2" fill="#78f7ff" fill-opacity="0.2312694647934594" filter="url(#glow)"/>
<circle cx="1436" cy="215" r="1" fill="#78f7ff" fill-opacity="0.23703204418886586" filter="url(#glow)"/>
<circle cx="1348" cy="222" r="2" fill="#78f7ff" fill-opacity="0.106306255518578" filter="url(#glow)"/>
<circle cx="168" cy="607" r="1" fill="#78f7ff" fill-opacity="0.2471325901568595" filter="url(#glow)"/>
<circle cx="1056" cy="726" r="3" fill="#78f7ff" fill-opacity="0.19544992253073876" filter="url(#glow)"/>
<circle cx="683" cy="506" r="3" fill="#78f7ff" fill-opacity="0.3293291735824926" filter="url(#glow)"/>
<circle cx="780" cy="336" r="1.5" fill="#78f7ff" fill-opacity="0.2944824600110726" filter="url(#glow)"/>
<circle cx="1471" cy="828" r="1.5" fill="#78f7ff" fill-opacity="0.10210085291485785" filter="url(#glow)"/>
<circle cx="654" cy="567" r="2.5" fill="#78f7ff" fill-opacity="0.31628712380482576" filter="url(#glow)"/>
<circle cx="959" cy="324" r="3" fill="#78f7ff" fill-opacity="0.34464720882299715" filter="url(#glow)"/>
<circle cx="281" cy="554" r="2.5" fill="#78f7ff" fill-opacity="0.12453976798376476" filter="url(#glow)"/>
<circle cx="740" cy="185" r="2.5" fill="#78f7ff" fill-opacity="0.19385855570872096" filter="url(#glow)"/>
<circle cx="1408" cy="109" r="5" fill="#78f7ff" fill-opacity="0.23068045321641117" filter="url(#glow)"/>
<circle cx="682" cy="378" r="4" fill="#78f7ff" fill-opacity="0.17454816468417544" filter="url(#glow)"/>
<circle cx="1057" cy="623" r="5" fill="#78f7ff" fill-opacity="0.2031754394513815" filter="url(#glow)"/>
<circle cx="231" cy="306" r="2.5" fill="#78f7ff" fill-opacity="0.2682013583132706" filter="url(#glow)"/>
<circle cx="173" cy="92" r="4" fill="#78f7ff" fill-opacity="0.2694028457521944" filter="url(#glow)"/>
<circle cx="1365" cy="621" r="4" fill="#78f7ff" fill-opacity="0.301919692384623" filter="url(#glow)"/>
<circle cx="622" cy="763" r="2.5" fill="#78f7ff" fill-opacity="0.31950087890428475" filter="url(#glow)"/>
<circle cx="750" cy="53" r="2.5" fill="#78f7ff" fill-opacity="0.1759753095758934" filter="url(#glow)"/>
<circle cx="1291" cy="149" r="2.5" fill="#78f7ff" fill-opacity="0.09591769321945381" filter="url(#glow)"/>
<circle cx="628" cy="162" r="4" fill="#78f7ff" fill-opacity="0.14685600509816685" filter="url(#glow)"/>
<circle cx="840" cy="968" r="5" fill="#78f7ff" fill-opacity="0.2140568087380897" filter="url(#glow)"/>
<circle cx="380" cy="489" r="2.5" fill="#78f7ff" fill-opacity="0.2283487754688901" filter="url(#glow)"/>
<circle cx="320" cy="868" r="2.5" fill="#78f7ff" fill-opacity="0.31327580681859907" filter="url(#glow)"/>
<circle cx="610" cy="753" r="2.5" fill="#78f7ff" fill-opacity="0.3463461118703202" filter="url(#glow)"/>
<circle cx="1438" cy="935" r="2.5" fill="#78f7ff" fill-opacity="0.3385874250702776" filter="url(#glow)"/>
<circle cx="349" cy="114" r="1.5" fill="#78f7ff" fill-opacity="0.12085056344142817" filter="url(#glow)"/>
<circle cx="1388" cy="268" r="1" fill="#78f7ff" fill-opacity="0.21093993719216625" filter="url(#glow)"/>
<circle cx="1246" cy="216" r="2" fill="#78f7ff" fill-opacity="0.15612129502821914" filter="url(#glow)"/>
<circle cx="338" cy="459" r="3" fill="#78f7ff" fill-opacity="0.17969846468157585" filter="url(#glow)"/>
<circle cx="1199" cy="356" r="1.5" fill="#78f7ff" fill-opacity="0.266433287426714" filter="url(#glow)"/>
<circle cx="1095" cy="662" r="4" fill="#78f7ff" fill-opacity="0.26257402226136534" filter="url(#glow)"/>
<circle cx="150" cy="497" r="5" fill="#78f7ff" fill-opacity="0.2905917624906396" filter="url(#glow)"/>
<circle cx="1433" cy="847" r="3" fill="#78f7ff" fill-opacity="0.1859423048606425" filter="url(#glow)"/>
<circle cx="857" cy="433" r="1" fill="#78f7ff" fill-opacity="0.21001116090460253" filter="url(#glow)"/>
<circle cx="860" cy="93" r="1.5" fill="#78f7ff" fill-opacity="0.09818385627761671" filter="url(#glow)"/>
<circle cx="467" cy="481" r="1.5" fill="#78f7ff" fill-opacity="0.10968064235012595" filter="url(#glow)"/>
<circle cx="1270" cy="83" r="1" fill="#78f7ff" fill-opacity="0.08006298611336629" filter="url(#glow)"/>
<circle cx="349" cy="579" r="1" fill="#78f7ff" fill-opacity="0.33621616481374705" filter="url(#glow)"/>
<circle cx="1296" cy="56" r="1" fill="#78f7ff" fill-opacity="0.3160697418909313" filter="url(#glow)"/>
<circle cx="1297" cy="415" r="1.5" fill="#78f7ff" fill-opacity="0.25129058620415323" filter="url(#glow)"/>
<circle cx="751" cy="646" r="2" fill="#78f7ff" fill-opacity="0.20802089507257487" filter="url(#glow)"/>
<circle cx="276" cy="899" r="2.5" fill="#78f7ff" fill-opacity="0.3481377348602727" filter="url(#glow)"/>
<circle cx="994" cy="521" r="2.5" fill="#78f7ff" fill-opacity="0.16420012483886523" filter="url(#glow)"/>
<circle cx="335" cy="134" r="4" fill="#78f7ff" fill-opacity="0.17251167632561049" filter="url(#glow)"/>
<circle cx="582" cy="520" r="5" fill="#78f7ff" fill-opacity="0.2668553275882335" filter="url(#glow)"/>
<circle cx="1097" cy="53" r="1.5" fill="#78f7ff" fill-opacity="0.3367661046761695" filter="url(#glow)"/>
<circle cx="1121" cy="400" r="1.5" fill="#78f7ff" fill-opacity="0.26631824818742683" filter="url(#glow)"/>
<circle cx="95" cy="806" r="3" fill="#78f7ff" fill-opacity="0.16048421639349558" filter="url(#glow)"/>
<circle cx="1356" cy="914" r="1" fill="#78f7ff" fill-opacity="0.2679731321951065" filter="url(#glow)"/>
<circle cx="574" cy="560" r="2" fill="#78f7ff" fill-opacity="0.3252298067890208" filter="url(#glow)"/>
<circle cx="768" cy="820" r="1.5" fill="#78f7ff" fill-opacity="0.22379994732307734" filter="url(#glow)"/>
<circle cx="1069" cy="367" r="4" fill="#78f7ff" fill-opacity="0.14022125173786" filter="url(#glow)"/>
<circle cx="439" cy="855" r="1.5" fill="#78f7ff" fill-opacity="0.3009498946978507" filter="url(#glow)"/>
<circle cx="504" cy="234" r="3" fill="#78f7ff" fill-opacity="0.213051097586765" filter="url(#glow)"/>
<circle cx="99" cy="58" r="5" fill="#78f7ff" fill-opacity="0.15544300554323803" filter="url(#glow)"/>
<circle cx="570" cy="228" r="4" fill="#78f7ff" fill-opacity="0.24338753855421447" filter="url(#glow)"/>
<circle cx="745" cy="487" r="5" fill="#78f7ff" fill-opacity="0.3329957243445854" filter="url(#glow)"/>
<circle cx="755" cy="403" r="1" fill="#78f7ff" fill-opacity="0.13952482720898413" filter="url(#glow)"/>
<circle cx="504" cy="511" r="1.5" fill="#78f7ff" fill-opacity="0.1711891195564032" filter="url(#glow)"/>
<circle cx="1028" cy="669" r="3" fill="#78f7ff" fill-opacity="0.3069175923654082" filter="url(#glow)"/>
<circle cx="1021" cy="961" r="4" fill="#78f7ff" fill-opacity="0.17288186353373386" filter="url(#glow)"/>
<circle cx="1357" cy="116" r="5" fill="#78f7ff" fill-opacity="0.2583581255553214" filter="url(#glow)"/>
<circle cx="835" cy="831" r="4" fill="#78f7ff" fill-opacity="0.28253792415422374" filter="url(#glow)"/>
<circle cx="1019" cy="940" r="1.5" fill="#78f7ff" fill-opacity="0.19715977045198205" filter="url(#glow)"/>
<circle cx="1342" cy="370" r="1" fill="#78f7ff" fill-opacity="0.2962223636021066" filter="url(#glow)"/>
<circle cx="850" cy="504" r="2.5" fill="#78f7ff" fill-opacity="0.2807052319171666" filter="url(#glow)"/>
<circle cx="213" cy="772" r="1.5" fill="#78f7ff" fill-opacity="0.12590098819241177" filter="url(#glow)"/>
<circle cx="300" cy="58" r="1.5" fill="#78f7ff" fill-opacity="0.23951932165257678" filter="url(#glow)"/>
<circle cx="993" cy="855" r="4" fill="#78f7ff" fill-opacity="0.11946706336084602" filter="url(#glow)"/>
<circle cx="1260" cy="515" r="4" fill="#78f7ff" fill-opacity="0.33311622786976414" filter="url(#glow)"/>
<circle cx="359" cy="591" r="3" fill="#78f7ff" fill-opacity="0.1153656400425516" filter="url(#glow)"/>
<circle cx="69" cy="848" r="4" fill="#78f7ff" fill-opacity="0.25541216081193424" filter="url(#glow)"/>
<circle cx="1118" cy="797" r="1.5" fill="#78f7ff" fill-opacity="0.1971285479245211" filter="url(#glow)"/>
<circle cx="438" cy="875" r="5" fill="#78f7ff" fill-opacity="0.13698143107860017" filter="url(#glow)"/>
<circle cx="555" cy="247" r="2" fill="#78f7ff" fill-opacity="0.21531371835578705" filter="url(#glow)"/>
<circle cx="1241" cy="363" r="2" fill="#78f7ff" fill-opacity="0.2269752466912075" filter="url(#glow)"/>
<circle cx="308" cy="92" r="4" fill="#78f7ff" fill-opacity="0.1755216864673799" filter="url(#glow)"/>
<circle cx="978" cy="708" r="3" fill="#78f7ff" fill-opacity="0.300062698752881" filter="url(#glow)"/>
<circle cx="1098" cy="460" r="5" fill="#78f7ff" fill-opacity="0.3277846927725193" filter="url(#glow)"/>
<circle cx="1067" cy="163" r="3" fill="#78f7ff" fill-opacity="0.12099582375099344" filter="url(#glow)"/>
<circle cx="1085" cy="49" r="5" fill="#78f7ff" fill-opacity="0.1988337263439347" filter="url(#glow)"/>
<circle cx="415" cy="653" r="1" fill="#78f7ff" fill-opacity="0.28953052070570007" filter="url(#glow)"/>
<circle cx="346" cy="206" r="1.5" fill="#78f7ff" fill-opacity="0.2078430917647282" filter="url(#glow)"/>
<circle cx="286" cy="599" r="1" fill="#78f7ff" fill-opacity="0.16801518078319327" filter="url(#glow)"/>
<circle cx="1101" cy="573" r="3" fill="#78f7ff" fill-opacity="0.2102714937310931" filter="url(#glow)"/>
<circle cx="257" cy="934" r="3" fill="#78f7ff" fill-opacity="0.09534209390799302" filter="url(#glow)"/>
<circle cx="431" cy="313" r="1" fill="#78f7ff" fill-opacity="0.2885104966639818" filter="url(#glow)"/>
<circle cx="1079" cy="493" r="3" fill="#78f7ff" fill-opacity="0.08752375472484639" filter="url(#glow)"/>
<circle cx="169" cy="483" r="2" fill="#78f7ff" fill-opacity="0.24538252877300426" filter="url(#glow)"/>
<circle cx="1075" cy="650" r="3" fill="#78f7ff" fill-opacity="0.13383886647997326" filter="url(#glow)"/>
<circle cx="607" cy="493" r="3" fill="#78f7ff" fill-opacity="0.22398706814637614" filter="url(#glow)"/>
<circle cx="1019" cy="549" r="1.5" fill="#78f7ff" fill-opacity="0.26878882818867716" filter="url(#glow)"/>
<circle cx="571" cy="974" r="3" fill="#78f7ff" fill-opacity="0.3210438342741288" filter="url(#glow)"/>
<circle cx="454" cy="890" r="2.5" fill="#78f7ff" fill-opacity="0.1170262976921499" filter="url(#glow)"/>
<circle cx="289" cy="431" r="2.5" fill="#78f7ff" fill-opacity="0.16531454443624202" filter="url(#glow)"/>
<circle cx="1414" cy="276" r="2.5" fill="#78f7ff" fill-opacity="0.09974260708262207" filter="url(#glow)"/>
<circle cx="1411" cy="340" r="5" fill="#78f7ff" fill-opacity="0.11303446957615862" filter="url(#glow)"/>
<circle cx="356" cy="992" r="4" fill="#78f7ff" fill-opacity="0.253733659671763" filter="url(#glow)"/>
<circle cx="789" cy="176" r="2" fill="#78f7ff" fill-opacity="0.31836486508741035" filter="url(#glow)"/>
<circle cx="997" cy="254" r="4" fill="#78f7ff" fill-opacity="0.33717611480812626" filter="url(#glow)"/>
<circle cx="855" cy="936" r="2.5" fill="#78f7ff" fill-opacity="0.12395469618786342" filter="url(#glow)"/>
<circle cx="1407" cy="882" r="1.5" fill="#78f7ff" fill-opacity="0.12359583616783737" filter="url(#glow)"/>
<circle cx="923" cy="557" r="2.5" fill="#78f7ff" fill-opacity="0.17156135897148134" filter="url(#glow)"/>
<circle cx="440" cy="395" r="2" fill="#78f7ff" fill-opacity="0.10489238705471698" filter="url(#glow)"/>
<circle cx="789" cy="49" r="2" fill="#78f7ff" fill-opacity="0.22959356690824856" filter="url(#glow)"/>
<circle cx="942" cy="750" r="1" fill="#78f7ff" fill-opacity="0.18377303063500244" filter="url(#glow)"/>
<circle cx="1099" cy="668" r="2" fill="#78f7ff" fill-opacity="0.21831081680513298" filter="url(#glow)"/>
<circle cx="171" cy="145" r="5" fill="#78f7ff" fill-opacity="0.1417095405039035" filter="url(#glow)"/>
<circle cx="254" cy="116" r="2" fill="#78f7ff" fill-opacity="0.15341852359986907" filter="url(#glow)"/>
<circle cx="411" cy="306" r="5" fill="#78f7ff" fill-opacity="0.11498000101253286" filter="url(#glow)"/>
<circle cx="904" cy="899" r="4" fill="#78f7ff" fill-opacity="0.301124324540946" filter="url(#glow)"/>
<circle cx="569" cy="445" r="1.5" fill="#78f7ff" fill-opacity="0.22488170041275252" filter="url(#glow)"/>
<circle cx="1094" cy="614" r="2.5" fill="#78f7ff" fill-opacity="0.2691127105675868" filter="url(#glow)"/>
<circle cx="223" cy="315" r="1" fill="#78f7ff" fill-opacity="0.2958886392847858" filter="url(#glow)"/>
<circle cx="415" cy="465" r="1" fill="#78f7ff" fill-opacity="0.15260932440574781" filter="url(#glow)"/>
<circle cx="74" cy="679" r="1" fill="#78f7ff" fill-opacity="0.2964397197242752" filter="url(#glow)"/>
<circle cx="211" cy="652" r="5" fill="#78f7ff" fill-opacity="0.1400501572190827" filter="url(#glow)"/>
<circle cx="581" cy="913" r="1" fill="#78f7ff" fill-opacity="0.2025188506626897" filter="url(#glow)"/>
<circle cx="734" cy="596" r="2.5" fill="#78f7ff" fill-opacity="0.3302007066992313" filter="url(#glow)"/>
<circle cx="588" cy="666" r="1.5" fill="#78f7ff" fill-opacity="0.0916655362566341" filter="url(#glow)"/>
<circle cx="1493" cy="274" r="1" fill="#78f7ff" fill-opacity="0.34168746041947046" filter="url(#glow)"/>
<circle cx="576" cy="81" r="1.5" fill="#78f7ff" fill-opacity="0.134477427167495" filter="url(#glow)"/>
<circle cx="678" cy="673" r="2" fill="#78f7ff" fill-opacity="0.2233931766827742" filter="url(#glow)"/>
<circle cx="461" cy="326" r="2.5" fill="#78f7ff" fill-opacity="0.2150239219626966" filter="url(#glow)"/>
<circle cx="404" cy="307" r="2" fill="#78f7ff" fill-opacity="0.29699331510740545" filter="url(#glow)"/>
<circle cx="552" cy="67" r="1" fill="#78f7ff" fill-opacity="0.08497715210863725" filter="url(#glow)"/>
<circle cx="1075" cy="594" r="1.5" fill="#78f7ff" fill-opacity="0.21884342609484025" filter="url(#glow)"/>
<circle cx="543" cy="987" r="2.5" fill="#78f7ff" fill-opacity="0.10869596315731468" filter="url(#glow)"/>
<circle cx="1371" cy="472" r="4" fill="#78f7ff" fill-opacity="0.21365042483355612" filter="url(#glow)"/>
<circle cx="845" cy="548" r="2" fill="#78f7ff" fill-opacity="0.26569026863648665" filter="url(#glow)"/>
<circle cx="510" cy="380" r="1.5" fill="#78f7ff" fill-opacity="0.3047173666814013" filter="url(#glow)"/>
<circle cx="1487" cy="776" r="4" fill="#78f7ff" fill-opacity="0.11772407903722211" filter="url(#glow)"/>
<circle cx="751" cy="85" r="5" fill="#78f7ff" fill-opacity="0.11505101691073837" filter="url(#glow)"/>
<circle cx="184" cy="670" r="4" fill="#78f7ff" fill-opacity="0.3175606532321151" filter="url(#glow)"/>
<circle cx="922" cy="197" r="1" fill="#78f7ff" fill-opacity="0.10281091563114128" filter="url(#glow)"/>
<circle cx="820" cy="921" r="3" fill="#78f7ff" fill-opacity="0.2610466904353432" filter="url(#glow)"/>
<circle cx="617" cy="643" r="1.5" fill="#78f7ff" fill-opacity="0.26702508955542587" filter="url(#glow)"/>
<circle cx="132" cy="500" r="1.5" fill="#78f7ff" fill-opacity="0.12253389375388553" filter="url(#glow)"/>
<circle cx="953" cy="33" r="2" fill="#78f7ff" fill-opacity="0.17831816509129375" filter="url(#glow)"/>
<circle cx="713" cy="590" r="2" fill="#78f7ff" fill-opacity="0.14600055336431125" filter="url(#glow)"/>
<circle cx="673" cy="253" r="2" fill="#78f7ff" fill-opacity="0.12939862966752502" filter="url(#glow)"/>
<circle cx="726" cy="420" r="1" fill="#78f7ff" fill-opacity="0.20815377939724022" filter="url(#glow)"/>
<circle cx="1069" cy="701" r="1.5" fill="#78f7ff" fill-opacity="0.147008436592509" filter="url(#glow)"/>
<circle cx="50" cy="123" r="2" fill="#78f7ff" fill-opacity="0.3006019559072957" filter="url(#glow)"/>
<circle cx="334" cy="439" r="3" fill="#78f7ff" fill-opacity="0.09125007857661123" filter="url(#glow)"/>
<circle cx="86" cy="336" r="2" fill="#78f7ff" fill-opacity="0.2500108666930987" filter="url(#glow)"/>
<circle cx="213" cy="629" r="3" fill="#78f7ff" fill-opacity="0.3103768247563091" filter="url(#glow)"/>
<circle cx="357" cy="703" r="4" fill="#78f7ff" fill-opacity="0.29169109856601416" filter="url(#glow)"/>
<circle cx="1261" cy="428" r="5" fill="#78f7ff" fill-opacity="0.16805638361411435" filter="url(#glow)"/>
<circle cx="1052" cy="183" r="2" fill="#78f7ff" fill-opacity="0.2755220588076929" filter="url(#glow)"/>
<circle cx="1357" cy="178" r="1" fill="#78f7ff" fill-opacity="0.3027114269549263" filter="url(#glow)"/>
<circle cx="1090" cy="672" r="2.5" fill="#78f7ff" fill-opacity="0.27814007333877966" filter="url(#glow)"/>
<circle cx="1075" cy="172" r="3" fill="#78f7ff" fill-opacity="0.2832741328044249" filter="url(#glow)"/>
<circle cx="1204" cy="884" r="5" fill="#78f7ff" fill-opacity="0.2972629535521681" filter="url(#glow)"/>
<circle cx="1445" cy="628" r="5" fill="#78f7ff" fill-opacity="0.3210640288294871" filter="url(#glow)"/>
<circle cx="1438" cy="739" r="4" fill="#78f7ff" fill-opacity="0.14208399454485443" filter="url(#glow)"/>
<circle cx="103" cy="72" r="1.5" fill="#78f7ff" fill-opacity="0.2520223668023274" filter="url(#glow)"/>
<circle cx="254" cy="415" r="5" fill="#78f7ff" fill-opacity="0.2018742686569866" filter="url(#glow)"/>
<circle cx="143" cy="672" r="1" fill="#78f7ff" fill-opacity="0.2490811439118522" filter="url(#glow)"/>
<circle cx="1434" cy="280" r="2.5" fill="#78f7ff" fill-opacity="0.15122408159743894" filter="url(#glow)"/>
<circle cx="975" cy="846" r="1" fill="#78f7ff" fill-opacity="0.28203164996040053" filter="url(#glow)"/>
<circle cx="1070" cy="949" r="3" fill="#78f7ff" fill-opacity="0.1048243205101107" filter="url(#glow)"/>
<circle cx="1117" cy="97" r="4" fill="#78f7ff" fill-opacity="0.2789328487064076" filter="url(#glow)"/>
<circle cx="556" cy="858" r="1" fill="#78f7ff" fill-opacity="0.3084560798235291" filter="url(#glow)"/>
<circle cx="520" cy="776" r="5" fill="#78f7ff" fill-opacity="0.13540873231216335" filter="url(#glow)"/>
<circle cx="1371" cy="501" r="2.5" fill="#78f7ff" fill-opacity="0.3082934376097569" filter="url(#glow)"/>
<circle cx="197" cy="520" r="4" fill="#78f7ff" fill-opacity="0.1575761750123048" filter="url(#glow)"/>
<circle cx="135" cy="661" r="4" fill="#78f7ff" fill-opacity="0.25354600335313626" filter="url(#glow)"/>
<circle cx="198" cy="644" r="1.5" fill="#78f7ff" fill-opacity="0.16957869387093089" filter="url(#glow)"/>
</svg>