<svg xmlns="http://www.w3.org/2000/svg" width="1024" height="1024" viewBox="0 0 1024 1024">
<defs>
  <filter id="glow" x="-50%" y="-50%" width="200%" height="200%">
    <feGaussianBlur stdDeviation="2.8" result="b"/>
    <feMerge><feMergeNode in="b"/><feMergeNode in="SourceGraphic"/></feMerge>
  </filter>
  <filter id="softGlow" x="-50%" y="-50%" width="200%" height="200%">
    <feGaussianBlur stdDeviation="8" result="b"/>
    <feMerge><feMergeNode in="b"/><feMergeNode in="SourceGraphic"/></feMerge>
  </filter>
  <radialGradient id="orbGrad" cx="50%" cy="50%" r="50%">
    <stop offset="0%" stop-color="#ffffff" stop-opacity="1"/>
    <stop offset="22%" stop-color="#d9ffff" stop-opacity="1"/>
    <stop offset="52%" stop-color="#6ef4ff" stop-opacity="0.72"/>
    <stop offset="100%" stop-color="#00d7ff" stop-opacity="0"/>
  </radialGradient>
</defs>

<circle cx="512" cy="512" r="338" fill="none" stroke="#63f3ff" stroke-opacity="0.32" stroke-width="1.6" filter="url(#glow)"/>
<circle cx="512" cy="512" r="304" fill="none" stroke="#63f3ff" stroke-opacity="0.18" stroke-width="1.4" filter="url(#glow)"/>
<circle cx="512" cy="512" r="258" fill="none" stroke="#63f3ff" stroke-opacity="0.28" stroke-width="1.5" filter="url(#glow)"/>
<circle cx="512" cy="512" r="210" fill="none" stroke="#63f3ff" stroke-opacity="0.14" stroke-width="1.2" filter="url(#glow)"/>
<path d="M 208.21 363.83 A 338.00 338.00 0 0 1 792.21 322.99" fill="none" stroke="#6ef6ff" stroke-opacity="0.88" stroke-width="3.2" stroke-linecap="round" filter="url(#glow)"/>
<path d="M 820.78 649.48 A 338.00 338.00 0 0 1 374.52 820.78" fill="none" stroke="#6ef6ff" stroke-opacity="0.88" stroke-width="3.2" stroke-linecap="round" filter="url(#glow)"/>
<path d="M 255.41 485.03 A 258.00 258.00 0 0 1 432.27 266.63" fill="none" stroke="#6ef6ff" stroke-opacity="0.88" stroke-width="3.2" stroke-linecap="round" filter="url(#glow)"/>
<path d="M 633.12 284.20 A 258.00 258.00 0 0 1 764.36 458.36" fill="none" stroke="#6ef6ff" stroke-opacity="0.88" stroke-width="3.2" stroke-linecap="round" filter="url(#glow)"/>
<path d="M 591.73 757.37 A 258.00 258.00 0 0 1 320.27 684.64" fill="none" stroke="#6ef6ff" stroke-opacity="0.88" stroke-width="3.2" stroke-linecap="round" filter="url(#glow)"/>
<path d="M 394.57 337.90 A 210.00 210.00 0 0 1 623.28 333.91" fill="none" stroke="#6ef6ff" stroke-opacity="0.88" stroke-width="3.2" stroke-linecap="round" filter="url(#glow)"/>
<path d="M 677.48 382.71 A 210.00 210.00 0 0 1 715.76 562.80" fill="none" stroke="#6ef6ff" stroke-opacity="0.88" stroke-width="3.2" stroke-linecap="round" filter="url(#glow)"/>
<path d="M 413.41 697.42 A 210.00 210.00 0 0 1 303.15 533.95" fill="none" stroke="#6ef6ff" stroke-opacity="0.88" stroke-width="3.2" stroke-linecap="round" filter="url(#glow)"/>
<line x1="808.00" y1="512.00" x2="820.00" y2="512.00" stroke="#62f4ff" stroke-opacity="0.18" stroke-width="1"/>
<line x1="797.91" y1="588.61" x2="809.51" y2="591.72" stroke="#62f4ff" stroke-opacity="0.18" stroke-width="1"/>
<line x1="797.91" y1="435.39" x2="809.51" y2="432.28" stroke="#62f4ff" stroke-opacity="0.18" stroke-width="1"/>
</svg>